# xmcd
# 
# Track frame offsets:
#     150
#     20090
#     45287
#     69075
#     93222
#     120417
#     145775
#     175760
#     198870
#     217585
#     235077
# 
# Disc length: 3460
# 
# Revision: 2
# Processed by: cddbd v1.5.2PL0 Copyright (c) Steve Scherf et al.
# Submitted via: BonkEnc v1.0.8
# 
DISCID=7d0d820b
DTITLE=Jon Mayer - The Classics
DYEAR=2003
DGENRE=Jazz
TTITLE0=Solar
TTITLE1=Along Came Betty
TTITLE2=Little Melonae
TTITLE3=Souvenir
TTITLE4=Recordame
TTITLE5=Solid
TTITLE6=Very Early
TTITLE7=Ecaroh
TTITLE8=Don't Misunderstand
TTITLE9=Voyage
TTITLE10=Ladybird
EXTD=YEAR: 2003
EXTT0=
EXTT1=
EXTT2=
EXTT3=
EXTT4=
EXTT5=
EXTT6=
EXTT7=
EXTT8=
EXTT9=
EXTT10=
PLAYORDER=
